arm26_states
nRows=10
nColumns=17

# SIMM Motion File Header:
name arm26_states
datacolumns 17
datarows 10
otherdata 1
range 0.59393216000000026000 0.61655360000000026000
endheader
time	r_shoulder_elev	r_elbow_flex	r_shoulder_elev_u	r_elbow_flex_u	TRIlong.activation	TRIlong.fiber_length	TRIlat.activation	TRIlat.fiber_length	TRImed.activation	TRImed.fiber_length	BIClong.activation	BIClong.fiber_length	BICshort.activation	BICshort.fiber_length	BRA.activation	BRA.fiber_length
      0.59393216000000026000	      0.03393043270385841200	     58.49051304708748200000	      0.25376497053881669000	    135.53520951436917000000	      0.00000001334721653051	      0.15920370469441986000	      0.00000031199981175918	      0.09366075623856345800	      0.00000033434979812835	      0.08864086015963364200	      0.07144722741128262100	      0.12331389690804039000	      0.04564250392557263300	      0.12196132750135033000	      0.01821814623474561600	      0.07952169452624441300
      0.59917504000000021000	      0.03542879864451545900	     59.19864183709363900000	      0.32746131870230394000	    134.58163458735345000000	      0.00000001170757189545	      0.15943553014217274000	      0.00000027367205882874	      0.09391930832401747300	      0.00000029327645137615	      0.08889938557245509500	      0.08433021122985960600	      0.12280481672197259000	      0.04288637881330931900	      0.12144197729961577000	      0.01862166910711053600	      0.07932397673948632400
      0.60000000000000031000	      0.03570101885712293600	     59.30960539586164500000	      0.33200893090648959000	    134.43817607917569000000	      0.00000001146858780847	      0.15948825652667176000	      0.00000026808565135718	      0.09395969316519325900	      0.00000028728986375660	      0.08893976415096319100	      0.08806643542331055200	      0.12271210261538963000	      0.04206840408191921100	      0.12136817312848444000	      0.01913066093341705300	      0.07929076489705787200
      0.60262144000000029000	      0.03656410437755622900	     59.66158160095151400000	      0.31587092418896329000	    134.12259965279014000000	      0.00000001074108171416	      0.15962854802648080000	      0.00000025107972626726	      0.09408759055676971200	      0.00000026906572577157	      0.08906764805706943200	      0.09475733861123594700	      0.12240477667882273000	      0.03945861411435479200	      0.12114456280224667000	      0.01990557141871884100	      0.07918377070537729900
      0.60524288000000026000	      0.03733229427851496300	     60.01292904998224000000	      0.26939046480856610000	    133.96547140045701000000	      0.00000001005972472959	      0.15972537671261752000	      0.00000023515256644022	      0.09421489746802416700	      0.00000025199762998363	      0.08919494821774331900	      0.09406826536421739000	      0.12211326549674882000	      0.03713071556047584800	      0.12093052520003486000	      0.01964557062534409000	      0.07908091061433764100
      0.60786432000000024000	      0.03797509204716023600	     60.36385803263439700000	      0.22356329608180883000	    133.74294978125857000000	      0.00000000942158940116	      0.15987490122466125000	      0.00000022023574075656	      0.09434169100955022700	      0.00000023601224323635	      0.08932173956997495300	      0.09105399995875361500	      0.12184752129545234000	      0.03506682673120144900	      0.12072006295477862000	      0.01896784904056092500	      0.07898178555081038200
      0.61000000000000032000	      0.03843790432996339200	     60.64922795239001400000	      0.21595794882173605000	    133.47856597181536000000	      0.00000000893174514337	      0.15996548734949512000	      0.00000020878531467909	      0.09444463506358648200	      0.00000022374157029620	      0.08942468468463937700	      0.08706627104607143900	      0.12164954732665949000	      0.03356889210909192600	      0.12054885552734175000	      0.01812535844533601900	      0.07890299544547216300
      0.61131072000000031000	      0.03872762230463976100	     60.82402968201258600000	      0.22837814880815588000	    133.24010941042786000000	      0.00000000864381296414	      0.16003027829633421000	      0.00000020205471391959	      0.09450762558912112500	      0.00000021652882554314	      0.08948767639136419300	      0.08455117658472610700	      0.12153580426721312000	      0.03289000287489123000	      0.12044310130250362000	      0.01762341378242459100	      0.07885527289902213900
      0.61393216000000028000	      0.03940090618346160600	     61.17254094574188600000	      0.29415824914433891000	    132.61797365444815000000	      0.00000000809549553270	      0.16015439712152690000	      0.00000018923743962092	      0.09463309660720667400	      0.00000020279339073581	      0.08961315063222127800	      0.08148333994242940000	      0.12131720793057521000	      0.03293839480221579700	      0.12022354911273671000	      0.01715374980314671200	      0.07875829432872687200
      0.61655360000000026000	      0.04030385105025514900	     61.51920196355418100000	      0.39810114595415308000	    131.85177698295627000000	      0.00000000758196043711	      0.16027295698275471000	      0.00000017723322490032	      0.09475774489587382400	      0.00000018992925871634	      0.08973780260450203700	      0.08119175679535026200	      0.12109791476920911000	      0.03718206291641967800	      0.11997340277997304000	      0.01797058684702969000	      0.07865609538337239900
